<mxfile host="app.diagrams.net" modified="2020-08-17T09:02:16.138Z" agent="5.0 (Windows NT 10.0; Win64; x64) AppleWebKit/537.36 (KHTML, like Gecko) Chrome/84.0.4147.125 Safari/537.36" etag="TUJPkGK4uTY8CTo0R7_7" version="13.6.2" type="github">
  <diagram id="prtHgNgQTEPvFCAcTncT" name="Page-1">
    <mxGraphModel dx="563" dy="364" grid="1" gridSize="10" guides="1" tooltips="1" connect="1" arrows="1" fold="1" page="1" pageScale="1" pageWidth="827" pageHeight="1169" math="0" shadow="0">
      <root>
        <mxCell id="0" />
        <mxCell id="1" parent="0" />
        <mxCell id="BpZB2gK0rkXDyEb2kHPm-6" value="Layer1&lt;br&gt;popuplegacy module" style="shape=ext;rounded=0;html=1;whiteSpace=wrap;" vertex="1" parent="1">
          <mxGeometry x="354" y="530" width="126" height="50" as="geometry" />
        </mxCell>
        <mxCell id="BpZB2gK0rkXDyEb2kHPm-5" value="" style="shape=ext;rounded=0;html=1;whiteSpace=wrap;fillColor=none;" vertex="1" parent="1">
          <mxGeometry x="354" y="480" width="126" height="100" as="geometry" />
        </mxCell>
        <mxCell id="BpZB2gK0rkXDyEb2kHPm-7" value="Layer2&lt;br&gt;popup module" style="text;html=1;strokeColor=none;fillColor=none;align=center;verticalAlign=middle;whiteSpace=wrap;rounded=0;" vertex="1" parent="1">
          <mxGeometry x="370" y="490" width="110" height="30" as="geometry" />
        </mxCell>
        <mxCell id="BpZB2gK0rkXDyEb2kHPm-8" value="" style="rounded=0;whiteSpace=wrap;html=1;fillColor=none;" vertex="1" parent="1">
          <mxGeometry x="294" y="480" width="60" height="100" as="geometry" />
        </mxCell>
        <mxCell id="BpZB2gK0rkXDyEb2kHPm-9" value="Shared" style="text;html=1;strokeColor=none;fillColor=none;align=center;verticalAlign=middle;whiteSpace=wrap;rounded=0;" vertex="1" parent="1">
          <mxGeometry x="304" y="520" width="40" height="20" as="geometry" />
        </mxCell>
        <mxCell id="BpZB2gK0rkXDyEb2kHPm-11" value="" style="edgeStyle=elbowEdgeStyle;elbow=vertical;endArrow=classic;html=1;" edge="1" parent="1">
          <mxGeometry width="50" height="50" relative="1" as="geometry">
            <mxPoint x="480" y="520" as="sourcePoint" />
            <mxPoint x="530" y="480" as="targetPoint" />
          </mxGeometry>
        </mxCell>
        <mxCell id="BpZB2gK0rkXDyEb2kHPm-12" value="" style="edgeStyle=elbowEdgeStyle;elbow=vertical;endArrow=classic;html=1;exitX=1;exitY=0.5;exitDx=0;exitDy=0;" edge="1" parent="1" source="BpZB2gK0rkXDyEb2kHPm-5">
          <mxGeometry width="50" height="50" relative="1" as="geometry">
            <mxPoint x="480" y="570" as="sourcePoint" />
            <mxPoint x="530" y="580" as="targetPoint" />
            <Array as="points">
              <mxPoint x="510" y="550" />
            </Array>
          </mxGeometry>
        </mxCell>
        <mxCell id="BpZB2gK0rkXDyEb2kHPm-15" value="APIs for afx-next-react&lt;br&gt;eg: popupAction.show/hide" style="shape=step;perimeter=stepPerimeter;whiteSpace=wrap;html=1;fixedSize=1;rounded=0;fillColor=none;" vertex="1" parent="1">
          <mxGeometry x="480" y="440" width="200" height="40" as="geometry" />
        </mxCell>
        <mxCell id="BpZB2gK0rkXDyEb2kHPm-16" value="old APIs for angular&lt;br&gt;eg: popupService.show/hide" style="shape=step;perimeter=stepPerimeter;whiteSpace=wrap;html=1;fixedSize=1;rounded=0;fillColor=none;" vertex="1" parent="1">
          <mxGeometry x="480" y="580" width="230" height="40" as="geometry" />
        </mxCell>
      </root>
    </mxGraphModel>
  </diagram>
</mxfile>
